# xmcd
#
# Track frame offsets:
#	150
#	14552
#	30057
#	44587
#	58140
#	72307
#	86223
#	103552
#	118687
#	137941
#
# Disc length: 2016 seconds
#
# Revision: 3
# Processed by: cddbd v1.5.2PL0 Copyright (c) Steve Scherf et al.
# Submitted via: MusicManager 7.3.0.0 
#
DISCID=8c07de0a
DTITLE=Various Artist - New Country - July 1998
DYEAR=1998
DGENRE=
TTITLE0=Johnny Bush - Please Talk to My Heart
TTITLE1=Redd Volkaert - She Loves Anything That Swings
TTITLE2=Kieran Kane - Six Months, No Sun
TTITLE3=Jo Linder - That Blue Moon
TTITLE4=Don Edwards - Cowboy Jack
TTITLE5=Cliff Waldron - Greenville Trestle High
TTITLE6=Salamander Crossing - What Kind of Person
TTITLE7=The Hangdogs - I'd Call to Say I Love You
TTITLE8=Kate Campbell - Visions of Plenty
TTITLE9=Sam Bush - Howlin' at the Moon
EXTD=
EXTT0=
EXTT1=
EXTT2=
EXTT3=
EXTT4=
EXTT5=
EXTT6=
EXTT7=
EXTT8=
EXTT9=
PLAYORDER=
